<?xml version="1.0" encoding="UTF-8"?>
<svg id="a" data-name="icon" xmlns="http://www.w3.org/2000/svg" viewBox="0 0 24 24">
  <path class="b" d="m22.39,9.3l-1.11-1.01c-.06-.06-.1-.14-.09-.23l.07-1.49c.05-.99-.32-1.98-1.01-2.7-.69-.72-1.65-1.13-2.64-1.13-.06,0-.11,0-.17,0l-1.49.07h0c-.09,0-.17-.03-.23-.09l-1.01-1.11c-.69-.76-1.68-1.19-2.7-1.19s-2.01.44-2.7,1.19l-1.01,1.11c-.06.06-.13.1-.22.1l-1.51-.07c-.06,0-.12,0-.17,0-.99,0-1.96.41-2.64,1.13-.69.72-1.05,1.7-1.01,2.7l.07,1.49c0,.09-.03.17-.09.23l-1.11,1.01c-.76.69-1.19,1.68-1.19,2.7s.44,2.01,1.19,2.7l1.11,1.01c.06.06.1.14.09.23l-.07,1.49c-.05.99.32,1.98,1.01,2.7.69.72,1.65,1.13,2.64,1.13.06,0,.11,0,.17,0l1.49-.07h0c.09,0,.17.03.23.09l1.01,1.11c.69.76,1.68,1.19,2.7,1.19s2.01-.44,2.7-1.19l1.01-1.11c.06-.06.13-.1.22-.1l1.51.07c.06,0,.12,0,.17,0,.99,0,1.96-.41,2.64-1.13.69-.72,1.05-1.7,1.01-2.7l-.07-1.49c0-.09.03-.17.09-.23l1.11-1.01c.76-.69,1.19-1.68,1.19-2.7s-.44-2.01-1.19-2.7Zm-4.23.62l-7,7c-.25.25-.58.38-.91.38s-.66-.13-.91-.38l-3.5-3.5c-.5-.5-.5-1.31,0-1.81s1.31-.5,1.81,0l2.59,2.59,6.1-6.1c.5-.5,1.31-.5,1.81,0,.5.5.5,1.31,0,1.81Z"/>
</svg>
