<?xml version="1.0" encoding="UTF-8"?>
<svg id="a" data-name="icon" xmlns="http://www.w3.org/2000/svg" viewBox="0 0 24 24">
  <path d="m12,2.22c.52,0,1.02.22,1.37.61l1.01,1.11c.4.43.96.68,1.56.68h.08s1.5-.07,1.5-.07h.09c.5,0,.99.21,1.34.57.35.37.53.86.51,1.37l-.07,1.49c-.03.62.22,1.22.68,1.64l1.11,1.01c.39.35.61.85.61,1.37s-.22,1.02-.61,1.37l-1.11,1.01c-.46.42-.71,1.02-.68,1.64l.07,1.49c.02.5-.16,1-.51,1.37-.35.37-.84.58-1.34.58h-.09s-1.51-.07-1.51-.07h-.04s-.04,0-.04,0c-.59,0-1.15.25-1.55.68l-1.01,1.11c-.35.39-.85.61-1.37.61s-1.02-.22-1.37-.61l-1.01-1.11c-.4-.43-.96-.68-1.56-.68h-.08s-1.49.07-1.49.07h-.09c-.5,0-.99-.21-1.34-.57-.35-.37-.53-.86-.51-1.37l.07-1.49c.03-.62-.22-1.22-.68-1.64l-1.11-1.01c-.39-.35-.61-.85-.61-1.37s.22-1.02.61-1.37l1.1-1.01c.46-.42.71-1.02.68-1.64l-.07-1.49c-.02-.5.16-1,.51-1.37.35-.37.84-.58,1.34-.58h.09s1.51.07,1.51.07h.04s.04,0,.04,0c.59,0,1.15-.25,1.55-.68l1.01-1.11c.35-.39.85-.61,1.37-.61m0-1.8c-1.03,0-2.01.44-2.7,1.19l-1.01,1.11c-.06.06-.13.1-.22.1l-1.51-.07c-.06,0-.12,0-.17,0-.99,0-1.96.41-2.64,1.13-.69.72-1.05,1.7-1.01,2.7l.07,1.49c0,.09-.03.17-.09.23l-1.11,1.01c-.76.69-1.19,1.68-1.19,2.7s.44,2.01,1.19,2.7l1.11,1.01c.06.06.1.14.09.23l-.07,1.49c-.05.99.32,1.98,1.01,2.7.69.72,1.65,1.13,2.64,1.13.06,0,.11,0,.17,0l1.49-.07h0c.09,0,.17.03.23.09l1.01,1.11c.69.76,1.68,1.19,2.7,1.19s2.01-.44,2.7-1.19l1.01-1.11c.06-.06.13-.1.22-.1l1.51.07c.06,0,.12,0,.17,0,.99,0,1.96-.41,2.64-1.13.69-.72,1.05-1.7,1.01-2.7l-.07-1.49c0-.09.03-.17.09-.23l1.11-1.01c.76-.69,1.19-1.68,1.19-2.7s-.44-2.01-1.19-2.7l-1.11-1.01c-.06-.06-.1-.14-.09-.23l.07-1.49c.05-.99-.32-1.98-1.01-2.7-.69-.72-1.65-1.13-2.64-1.13-.06,0-.11,0-.17,0l-1.49.07h0c-.09,0-.17-.03-.23-.09l-1.01-1.11c-.69-.76-1.68-1.19-2.7-1.19h0Z"/>
  <path class="b" d="m17.81,12c0-.63-.51-1.13-1.13-1.13h-3.55v-3.55c0-.63-.51-1.13-1.13-1.13s-1.13.51-1.13,1.13v3.55h-3.55c-.63,0-1.13.51-1.13,1.13,0,.31.13.6.33.8s.49.33.8.33h3.55v3.55c0,.31.13.6.33.8s.49.33.8.33c.63,0,1.13-.51,1.13-1.13v-3.55h3.55c.63,0,1.13-.51,1.13-1.13Z"/>
</svg>